# xmcd
#
# Track frame offsets: 
#        150
#        14906
#        32251
#        49199
#        65597
#        85072
#        102763
#        123678
#        149298
#        169373
#        193924
#
# Disc length: 2841 seconds
#
# Revision: 0
# Processed by: cddbd v1.5.2PL0 Copyright (c) Steve Scherf et al.
# Submitted via: ExactAudioCopy v1.3
#
DISCID=9e0b170b
DTITLE=Roy Campbell - American Breakdown
DYEAR=1900
DGENRE=Country
TTITLE0=Sad truth
TTITLE1=World of tears
TTITLE2=American breakdown
TTITLE3=Sorrytown
TTITLE4=Rosabelle
TTITLE5=Sleeping without you
TTITLE6=The world keeps on ending
TTITLE7=Blind
TTITLE8=Pacific
TTITLE9=Home after dark
TTITLE10=Ruby
EXTD=
EXTT0=
EXTT1=
EXTT2=
EXTT3=
EXTT4=
EXTT5=
EXTT6=
EXTT7=
EXTT8=
EXTT9=
EXTT10=
PLAYORDER=
